<?xml version="1.0" standalone="no"?>
<!DOCTYPE svg PUBLIC "-//W3C//DTD SVG 20010904//EN"
 "http://www.w3.org/TR/2001/REC-SVG-20010904/DTD/svg10.dtd">
<svg version="1.0" xmlns="http://www.w3.org/2000/svg"
 width="1688.000000pt" height="1704.000000pt" viewBox="0 0 1688.000000 1704.000000"
 preserveAspectRatio="xMidYMid meet">

<g transform="translate(0.000000,1704.000000) scale(0.100000,-0.100000)"
fill="#000000" stroke="none">
<path d="M8307 16768 c-69 -33 -8169 -8200 -8200 -8268 -30 -65 -28 -154 4
-214 23 -45 325 -352 2451 -2494 l668 -672 172 2 172 3 -1614 1629 c-888 896
-1615 1635 -1615 1641 0 7 1660 1688 3690 3736 2030 2047 3843 3878 4030 4067
l340 345 4078 -4113 c2243 -2263 4076 -4117 4075 -4121 -2 -4 -709 -719 -1573
-1589 -863 -871 -1571 -1587 -1573 -1591 -2 -5 73 -9 167 -9 l170 0 1503 1515
c1143 1151 1510 1527 1531 1567 26 48 28 60 25 124 -4 52 -11 82 -28 109 -32
52 -8203 8294 -8252 8324 -59 35 -157 40 -221 9z"/>
<path d="M8318 15432 c-53 -24 -6863 -6892 -6889 -6947 -23 -50 -24 -89 -1
-137 11 -25 567 -592 1596 -1630 l1580 -1593 114 -3 c66 -1 112 1 110 7 -1 5
-733 746 -1626 1647 -892 900 -1621 1640 -1620 1644 4 8 6799 6860 6803 6860
2 0 1548 -1558 3436 -3461 l3431 -3461 -259 -262 c-234 -236 -2293 -2314
-2757 -2783 l-191 -193 116 0 116 0 1561 1574 c1626 1640 1582 1594 1582 1671
0 11 -8 37 -18 57 -22 48 -6901 6989 -6949 7012 -43 21 -88 20 -135 -2z"/>
<path d="M5190 8410 l0 -2000 193 0 c222 0 256 9 298 76 l24 39 0 1410 c0 776
-3 1427 -7 1448 -4 21 -3 37 2 35 4 -2 493 -630 1085 -1396 592 -766 1079
-1392 1081 -1389 2 2 4 179 4 394 1 371 0 394 -20 453 -12 34 -29 74 -38 89
-40 62 -2147 2778 -2171 2798 -41 34 -98 43 -280 43 l-171 0 0 -2000z"/>
<path d="M8037 10403 c-10 -3 -22 -16 -28 -29 -5 -16 -9 -762 -9 -1934 l0
-1909 30 -35 c17 -19 54 -46 82 -60 49 -25 60 -26 214 -26 134 0 165 3 178 16
14 14 16 208 16 1984 l0 1969 -22 15 c-19 13 -57 16 -233 15 -115 -1 -218 -3
-228 -6z"/>
<path d="M10465 10396 c-108 -26 -101 -18 -813 -845 -372 -431 -694 -797 -716
-812 -55 -41 -126 -59 -226 -59 -124 0 -120 9 -120 -232 0 -241 -8 -228 146
-228 129 0 210 -17 259 -54 19 -15 341 -390 715 -834 374 -444 699 -826 721
-849 65 -69 95 -74 438 -71 l293 3 -718 880 c-394 484 -751 923 -792 975 -90
115 -137 159 -220 206 l-63 36 49 33 c27 19 74 60 105 92 63 66 1537 1761
1537 1768 0 11 -547 3 -595 -9z"/>
<path d="M5102 4620 c-193 -51 -341 -171 -431 -352 -74 -149 -94 -238 -95
-423 0 -168 19 -270 73 -388 39 -87 69 -130 149 -210 52 -54 87 -78 157 -112
119 -57 177 -70 315 -69 91 1 132 6 195 25 248 75 409 252 477 527 32 125 31
381 0 497 -75 274 -257 459 -501 511 -95 20 -250 17 -339 -6z m362 -184 c127
-62 225 -193 271 -361 22 -80 30 -262 16 -351 -52 -336 -273 -536 -544 -494
-100 15 -170 52 -247 129 -74 75 -119 156 -152 278 -28 105 -30 294 -4 408 39
172 137 321 254 383 81 44 121 52 234 48 89 -3 105 -6 172 -40z"/>
<path d="M12600 4624 c-82 -17 -210 -79 -277 -133 -282 -227 -356 -759 -155
-1105 50 -86 162 -193 247 -237 93 -48 150 -66 270 -83 56 -8 162 -35 240 -61
121 -40 328 -101 447 -133 l37 -10 27 80 c14 43 24 81 23 83 -2 1 -40 10 -84
19 -147 29 -355 79 -355 85 0 3 33 22 73 41 104 50 209 157 265 270 71 144 86
217 86 420 1 208 -11 263 -85 418 -113 234 -325 363 -593 361 -56 0 -130 -7
-166 -15z m293 -164 c148 -46 261 -177 319 -370 13 -43 22 -108 25 -196 8
-204 -28 -348 -121 -479 -75 -105 -173 -166 -297 -186 -196 -31 -380 73 -478
271 -53 110 -73 204 -73 350 1 283 104 492 291 585 97 49 225 59 334 25z"/>
<path d="M6384 4620 c-39 -4 -89 -11 -112 -15 l-42 -7 0 -754 0 -754 100 0
100 0 0 331 0 331 133 -4 c117 -3 138 -6 188 -29 99 -46 125 -96 190 -360 27
-110 55 -215 63 -234 l15 -35 100 0 c56 0 101 2 101 4 0 2 -6 19 -14 37 -8 19
-37 125 -65 235 -53 213 -71 267 -107 324 -24 40 -84 96 -120 112 -13 6 -24
14 -24 17 0 3 21 15 48 25 70 29 173 135 203 211 19 50 24 78 24 165 0 98 -2
109 -32 171 -52 107 -143 176 -279 214 -68 19 -356 29 -470 15z m406 -169
c120 -45 180 -130 180 -256 0 -89 -29 -155 -94 -212 -71 -62 -116 -75 -293
-80 l-153 -5 0 281 0 281 23 5 c58 12 79 13 177 10 75 -2 121 -9 160 -24z"/>
<path d="M1520 3855 l0 -765 95 0 95 0 0 765 0 765 -95 0 -95 0 0 -765z"/>
<path d="M2060 3855 l0 -765 95 0 95 0 -1 338 c0 185 -4 472 -9 637 -4 165 -7
302 -5 304 2 2 26 -41 53 -95 75 -149 129 -239 435 -731 l282 -453 103 0 102
0 0 765 0 765 -97 0 -96 0 7 -552 c4 -304 11 -590 14 -636 4 -45 6 -82 5 -82
-2 0 -27 48 -57 108 -82 164 -148 273 -441 736 l-270 426 -107 0 -108 0 0
-765z"/>
<path d="M3550 3855 l0 -765 100 0 100 0 0 345 0 345 290 0 290 0 0 80 0 80
-287 2 -288 3 -3 253 -2 252 315 0 315 0 0 85 0 85 -415 0 -415 0 0 -765z"/>
<path d="M7516 4578 c-3 -24 -26 -344 -51 -713 -25 -368 -47 -694 -51 -722
l-5 -53 95 0 c53 0 96 2 96 4 0 2 11 179 25 392 13 214 29 506 35 649 6 143
12 264 13 268 1 4 26 -77 56 -180 29 -103 124 -397 210 -653 l158 -465 78 0
78 0 144 395 c79 217 180 505 224 640 44 135 84 254 88 265 4 10 11 -86 14
-215 6 -214 37 -816 52 -1017 l7 -83 94 0 c91 0 94 1 94 23 0 12 -20 344 -45
737 -25 393 -45 727 -45 743 l0 27 -127 0 -128 0 -138 -378 c-147 -405 -229
-645 -268 -784 -13 -49 -26 -88 -29 -88 -4 0 -14 33 -25 73 -35 136 -135 442
-264 807 l-129 365 -125 3 -126 3 -5 -43z"/>
<path d="M9655 4608 c-10 -27 -351 -1035 -430 -1270 l-83 -248 101 0 102 0 80
240 80 240 270 0 270 0 80 -236 c44 -130 84 -238 90 -241 6 -2 55 -2 107 -1
l96 3 -169 495 c-93 272 -210 615 -260 763 l-91 267 -120 0 c-86 0 -120 -3
-123 -12z m145 -258 c12 -47 62 -204 111 -349 49 -145 89 -268 89 -273 0 -4
-101 -8 -225 -8 -173 0 -225 3 -225 13 0 6 30 98 66 202 59 172 114 348 144
464 6 23 13 41 15 40 2 -2 13 -42 25 -89z"/>
<path d="M10300 4535 l0 -85 230 0 230 0 0 -680 0 -680 100 0 100 0 0 680 0
680 235 0 235 0 0 85 0 85 -565 0 -565 0 0 -85z"/>
<path d="M11600 3855 l0 -765 100 0 100 0 0 765 0 765 -100 0 -100 0 0 -765z"/>
<path d="M13710 4123 c0 -527 5 -604 48 -726 81 -229 284 -351 549 -333 242
17 408 138 485 353 42 118 48 209 48 721 l0 482 -100 0 -100 0 0 -492 c-1
-532 -6 -598 -53 -701 -51 -111 -136 -176 -259 -197 -159 -28 -304 48 -368
194 -46 103 -50 150 -50 689 l0 507 -100 0 -100 0 0 -497z"/>
<path d="M15180 3855 l0 -765 430 0 430 0 0 80 0 80 -330 0 -330 0 0 280 0
280 295 0 295 0 0 80 0 80 -295 0 -295 0 0 240 0 240 315 0 315 0 0 85 0 85
-415 0 -415 0 0 -765z"/>
<path d="M6042 2411 c2 -4 503 -482 1113 -1060 784 -744 1125 -1060 1160
-1079 74 -38 162 -37 238 3 43 23 319 279 1168 1085 l1111 1055 -181 3 -181 2
-963 -911 c-529 -502 -987 -937 -1018 -967 l-57 -54 -1018 966 -1019 966 -178
0 c-98 0 -177 -4 -175 -9z"/>
<path d="M7560 2417 c0 -11 806 -764 828 -774 39 -18 122 -15 158 5 18 9 188
166 379 347 191 182 371 351 399 377 l51 47 -125 0 -125 0 -225 -215 c-124
-119 -273 -260 -331 -314 l-106 -99 -332 314 -332 315 -119 0 c-66 0 -120 -1
-120 -3z"/>
</g>
</svg>
